<svg fill="none" height="161" viewBox="0 0 292 161" width="292" xmlns="http://www.w3.org/2000/svg"><g fill="#000"><path d="m1.69996.800293c-.800001 0-1.199903.600047-.899903 1.300047l30.399943 72.59986c.3.7 1.2 1.3 2 1.3h3.6999c.8 0 1.7-.6 2-1.3l9.4002-22.0999c.3-.7.7998-.7 1.0998 0l9.5 22.0999c.3.7 1.2 1.3 2 1.3h3.5c.8 0 1.7-.6 2-1.3l30.9002-72.59986c.3-.7-.1002-1.300047-.9002-1.300047h-7.5c-.8 0-1.7.600047-2 1.300047l-23.5998 57.99996c-.3.7-.8001.7-1.1001 0l-24.0999-57.99996c-.3-.7-1.2-1.300047-2-1.300047h-6.7002c-.8 0-1.1999.600047-.8999 1.300047l14.8001 35.69996c.3.7.3 1.8998 0 2.5998l-7.9002 19.5c-.3.7-.7998.7-1.0998 0l-23.9002-57.89986c-.3-.7-1.19999-1.300045-1.99999-1.300045h-6.69995z"/><path d="m127.3.799805c1.1 0 2.5 1.199855 3.1 2.599855l31 70.00004c.6 1.4-.1 2.6001-1.7 2.6001h-64.8001c-1.6 0-2.2999-1.2001-1.6999-2.6001l31-70.00004c.6-1.4 2-2.599855 3.1-2.599855zm0 16.999995c-.7 0-1.8 1.1999-2.4 2.5999l-19.4 44.8c-.6 1.4.2 2.6001 1.7 2.6001h40.2c1.6 0 2.3-1.2001 1.7-2.6001l-19.4-44.8c-.6-1.4-1.7-2.5999-2.4-2.5999z"/><path d="m172.3 38.4004c-.8 0-1.4.6001-1.4 1.4001v34.7c0 .8.6 1.3999 1.4 1.3999h6c.8 0 1.4-.5999 1.4-1.3999v-24.8001c0-.8.6-1.3999 1.4-1.3999h14.3c.8 0 1.8.5 2.2 1.2l15.7 25.3c.4.7 1.4 1.2 2.2 1.2h9c.8 0 1.1-.5.7-1.2l-16.3-25.9001c-.4-.7-.1-1.3999.6-1.5999 0 0 6.9-2 11.5-7.3 6.1-7.1 7.8-17.9999 3.2-26.8999-4.9-9.30001-11.3-12.200209-16-12.200209s-31.6 0-31.6 0c-.8 0-1.4.600149-1.4 1.400149v5.69995c0 .8.6 1.3999 1.4 1.3999h27.3c.8 0 2 .20015 2.8.40015 0 0 4.9 1.59996 7.8 6.69996 2.7 4.8 2.8 11.2-.5 16-2.9 4.2-7.3 5.5-7.3 5.5-.7.2-2 .3999-2.8.3999z"/><path d="m236.8 38.3997c-.8 0-1.4.6001-1.4 1.4001v34.7c0 .8.6 1.3999 1.4 1.3999h6c.8 0 1.4-.5999 1.4-1.3999v-24.8001c0-.8.6-1.3999 1.4-1.3999h14.3c.8 0 2.1-.0001 2.8-.1001l8.3-.5c.8 0 2-.3 2.8-.5 0 0 6.9-2 11.5-7.3 6.1-7.1 7.8-17.9999 3.2-26.8999-4.9-9.30004-11.3-12.199995-16-12.199995s-31.6 0-31.6 0c-.8 0-1.4.599905-1.4 1.399905v5.69995c0 .8.6 1.40014 1.4 1.40014h27.3c.8 0 2 .19991 2.8.39991 0 0 4.9 1.59999 7.8 6.69999 2.7 4.8 2.8 11.2-.5 16-2.9 4.2-7.3 5.5-7.3 5.5-.7.2-2 .4001-2.8.4001h-31.4z"/><path d="m212.1 121c.3.4.3 1.1.1 1.5l-20 37.301c-.2.4-.8.699-1.3.699h-90.2c-.5 0-1.0002-.299-1.3002-.699l-20-37.301c-.2-.4-.1999-1.1.1001-1.5l7.7-11.899c.3-.4.8-.701 1.3-.701h114.5001c.5 0 1.1.301 1.3.701zm-126.2002-.1c-.3.4-.2998 1.1-.0998 1.5l4.6999 9.6c.2.4.8.801 1.2.801h107.9001c.5 0 1-.301 1.2-.801l4.7-9.6c.2-.4.2-1.1-.1-1.5l-4.1-6.2c-.3-.4-.8-.7-1.3-.7h-108.9c-.5 0-1.1.3-1.3.7zm17.2002 33.901c.2.4.8.699 1.3.699h82.9c.5 0 1-.299 1.3-.699l9-16.801c.2-.4 0-.699-.4-.699h-102.5001c-.5 0-.6999.299-.3999.699z"/></g><path d="m212.1 121c.3.4.3 1.1.1 1.5l-20 37.301c-.2.4-.8.699-1.3.699h-90.2c-.5 0-1.0002-.299-1.3002-.699l-20-37.301c-.2-.4-.1999-1.1.1001-1.5l7.7-11.899c.3-.4.8-.701 1.3-.701h114.5001c.5 0 1.1.301 1.3.701zm-126.2002-.1c-.3.4-.2998 1.1-.0998 1.5l4.6999 9.6c.2.4.8.801 1.2.801h107.9001c.5 0 1-.301 1.2-.801l4.7-9.6c.2-.4.2-1.1-.1-1.5l-4.1-6.2c-.3-.4-.8-.7-1.3-.7h-108.9c-.5 0-1.1.3-1.3.7zm17.2002 33.901c.2.4.8.699 1.3.699h82.9c.5 0 1-.299 1.3-.699l9-16.801c.2-.4 0-.699-.4-.699h-102.5001c-.5 0-.6999.299-.3999.699z" stroke="#000" stroke-miterlimit="10"/></svg>