<svg height="20" viewBox="0 0 41 20" width="41" xmlns="http://www.w3.org/2000/svg" xmlns:xlink="http://www.w3.org/1999/xlink"><mask id="a" fill="#fff"><path d="m0 0h41v20h-41z" fill="#fff" fill-rule="evenodd"/></mask><path d="m39.673 5.363-2.317 6.427c-.144.388-.28.78-.403 1.16-.06.19-.117.37-.173.541h-.043l-.178-.561c-.12-.377-.25-.747-.382-1.1l-2.477-6.467h-1.324l3.544 9.297c.093.225.107.327.107.368 0 .013-.005.089-.109.372a6.823 6.823 0 0 1 -.751 1.426 8.5 8.5 0 0 1 -.776.951c-.27.275-.548.5-.83.671a8.053 8.053 0 0 1 -.786.42l-.134.061.432 1.071.137-.052a9.16 9.16 0 0 0 .643-.3c.324-.163.682-.42 1.063-.77.328-.291.63-.637.895-1.027.262-.383.524-.833.78-1.333.255-.499.509-1.066.758-1.688.247-.624.513-1.322.789-2.072l2.862-7.395zm-9.69 6.828c0 .135-.031.32-.091.542-.077.232-.188.46-.334.679a2.553 2.553 0 0 1 -1.3 1.001c-.291.103-.627.155-.996.155-.224 0-.444-.038-.655-.113a1.6 1.6 0 0 1 -.55-.336 1.661 1.661 0 0 1 -.386-.571 2.175 2.175 0 0 1 -.148-.847c0-.543.144-.983.425-1.305.29-.335.662-.593 1.106-.765a5.59 5.59 0 0 1 1.497-.348 13.107 13.107 0 0 1 1.432-.064zm1.262 1.975c-.014-.393-.02-.786-.02-1.179v-3.857a7.41 7.41 0 0 0 -.133-1.387 3.57 3.57 0 0 0 -.514-1.29 2.902 2.902 0 0 0 -1.049-.95c-.442-.241-1.016-.365-1.708-.365a5.38 5.38 0 0 0 -1.465.2 4.61 4.61 0 0 0 -1.37.664l-.1.072.42 1.001.151-.104a4.042 4.042 0 0 1 2.267-.708c.516 0 .93.095 1.225.284.3.19.525.428.67.703.153.285.252.589.295.903.047.328.07.621.07.873v.112c-1.841-.009-3.279.304-4.234.931-1.001.658-1.51 1.595-1.51 2.784 0 .342.06.688.18 1.028.12.345.302.653.541.917.24.267.55.485.922.647.37.164.804.248 1.29.248a3.578 3.578 0 0 0 1.95-.545 3.73 3.73 0 0 0 .913-.807h.048l.114 1.126h1.197l-.033-.181a7.825 7.825 0 0 1 -.117-1.12zm-9.61-6.38c-.638.546-1.54.822-2.685.822a9.18 9.18 0 0 1 -.886-.04 4.082 4.082 0 0 1 -.624-.107v-5.9c.164-.03.367-.06.606-.086.302-.033.667-.05 1.084-.05.517 0 .995.063 1.419.188.42.123.787.307 1.09.545.298.236.533.542.695.911.164.374.247.82.247 1.325 0 1.05-.319 1.855-.946 2.393zm1.141-5.299c-.388-.381-.889-.678-1.487-.882-.594-.202-1.307-.304-2.119-.304-.56 0-1.085.028-1.557.083-.467.054-.9.116-1.29.184l-.125.022v13.877h1.242v-5.846c.419.073.897.111 1.425.111a6.75 6.75 0 0 0 1.957-.272 4.345 4.345 0 0 0 1.57-.834 4.03 4.03 0 0 0 1.047-1.39c.254-.55.384-1.197.384-1.923 0-.602-.094-1.143-.275-1.609a3.7 3.7 0 0 0 -.772-1.217zm-14.605.001c.533-.66.893-1.575.796-2.488-.77.032-1.702.525-2.25 1.181-.496.583-.926 1.516-.807 2.41.856.07 1.728-.444 2.261-1.103zm2.213 5.791c-.017-1.973 1.578-2.923 1.652-2.97-.9-1.336-2.296-1.52-2.793-1.541-1.19-.12-2.324.714-2.926.714-.603 0-1.531-.695-2.52-.674-1.297.019-2.492.769-3.16 1.952-1.344 2.39-.341 5.92.97 7.852.643.947 1.407 2.01 2.413 1.972.968-.039 1.332-.64 2.501-.64 1.17-.001 1.499.638 2.52.62 1.04-.024 1.701-.967 2.34-1.918.733-1.095 1.037-2.16 1.052-2.213-.02-.013-2.026-.794-2.049-3.154z" fill="#00182f" fill-rule="evenodd" mask="url(#a)" opacity=".3"/></svg>