<svg viewBox="0 0 50.01 50.01" xmlns="http://www.w3.org/2000/svg" xmlns:xlink="http://www.w3.org/1999/xlink"><linearGradient id="a" gradientUnits="userSpaceOnUse" x1="25.0034" x2="25.0034" y1="1.5668" y2="50.0018"><stop offset="0" stop-color="#ed3024"/><stop offset="1" stop-color="#b6241c"/></linearGradient><path d="m14.51 0h20.99c10.56 0 14.51 3.95 14.51 14.51v20.99c0 10.56-3.95 14.51-14.51 14.51h-20.99c-10.56-.01-14.51-3.95-14.51-14.51v-20.99c0-10.56 3.95-14.51 14.51-14.51z" fill="url(#a)"/><g fill="#fff"><path d="m28.02 12.92c.23.62 5.51 15.08 5.67 15.51.04.12.02.32-.17.39s-2.94 1.14-3.09 1.2-.32-.03-.38-.18-1.26-3.69-1.39-4.04c-.38 0-7.2-.03-7.58-.03-.13.35-1.46 3.93-1.52 4.07-.05.14-.22.24-.38.18s-2.92-1.13-3.08-1.2c-.16-.06-.23-.24-.17-.39.19-.54 5.4-14.77 5.67-15.51.51-1.43 1.18-2.91 3.21-2.91 2.03-.01 2.67 1.45 3.21 2.91zm-5.9 9.61h5.34l-2.39-7.77h-.62z"/><path d="m15.31 35.57c-.17 0-.3.14-.3.31v3.46c0 .17.14.31.3.31h18.99c.17 0 .3-.14.3-.31v-3.46c0-.17-.13-.31-.3-.31z"/></g></svg>