<svg height="17" viewBox="0 0 40 17" width="40" xmlns="http://www.w3.org/2000/svg" xmlns:xlink="http://www.w3.org/1999/xlink"><mask id="a" fill="#fff"><path d="m.059.26h7.855v11.372h-7.855z" fill="#fff" fill-rule="evenodd"/></mask><mask id="b" fill="#fff"><path d="m0 .241h2.903v5.95h-2.903z" fill="#fff" fill-rule="evenodd"/></mask><mask id="c" fill="#fff"><path d="m.711.17h10.352v5.36h-10.352z" fill="#fff" fill-rule="evenodd"/></mask><g fill="#00182f" fill-rule="evenodd" opacity=".3"><path d="m18.982 3.23v4.072h2.478a1.966 1.966 0 0 0 1.468-.59 2.03 2.03 0 0 0 -1.468-3.436l-2.478-.045zm0 5.45v4.67h-1.485v-11.533h3.928a3.58 3.58 0 0 1 2.55 1.011 3.328 3.328 0 0 1 .162 4.705l-.001.002-.161.17a3.578 3.578 0 0 1 -2.55.984l-2.443-.01zm7.588 2.255c-.008.384.176.746.491.966.326.257.73.394 1.146.385a2.4 2.4 0 0 0 1.673-.69c.445-.417.697-1 .698-1.61a2.984 2.984 0 0 0 -1.933-.545c-.534-.02-1.06.13-1.503.43-.356.236-.57.635-.573 1.064m1.881-5.735a3.703 3.703 0 0 1 2.594.894c.65.627.996 1.505.948 2.406v4.869h-1.413v-1.119h-.072a2.816 2.816 0 0 1 -2.442 1.36 3.16 3.16 0 0 1 -2.184-.778 2.435 2.435 0 0 1 -.894-1.933 2.344 2.344 0 0 1 .894-1.951 4.014 4.014 0 0 1 2.479-.752 4.366 4.366 0 0 1 2.174.483v-.303c.01-.51-.215-.994-.608-1.315a2.063 2.063 0 0 0 -1.432-.537 2.253 2.253 0 0 0 -1.924 1.047l-1.306-.824a3.632 3.632 0 0 1 3.184-1.547"/><path d="m7.914.26-4.947 11.372h-1.53l1.87-3.982-3.249-7.39h1.61l2.352 5.672 2.293-5.672z" mask="url(#a)" transform="translate(32.21 5.2)"/><path d="m12.987 7.669c0-.45-.036-.899-.107-1.342h-6.264v2.55h3.58a3.057 3.057 0 0 1 -1.316 2.003v1.655h2.139a6.464 6.464 0 0 0 1.968-4.867"/><path d="m6.626 14.147a6.354 6.354 0 0 0 4.393-1.602l-2.139-1.664a4.018 4.018 0 0 1 -5.977-2.103h-2.192v1.71a6.614 6.614 0 0 0 5.915 3.659"/><path d="m2.903 4.483a3.957 3.957 0 0 1 0-2.533v-1.709h-2.192a6.577 6.577 0 0 0 0 5.95z" mask="url(#b)" transform="translate(0 4.305)"/><path d="m6.626 2.791a3.583 3.583 0 0 1 2.54.994l1.897-1.888a6.381 6.381 0 0 0 -4.473-1.727 6.612 6.612 0 0 0 -5.88 3.65l2.192 1.71a3.964 3.964 0 0 1 3.724-2.74" mask="url(#c)" transform="translate(0 .726)"/></g></svg>