<svg xmlns="http://www.w3.org/2000/svg" xmlns:xlink="http://www.w3.org/1999/xlink" width="89" height="13" viewBox="0 0 89 13"><defs><path id="a" d="M0 0h88.4v13H0z"/></defs><g fill="none" fill-rule="evenodd" opacity=".3"><mask id="b" fill="#fff"><use xlink:href="#a"/></mask><path fill="#00182F" d="M51.456 8.123c.568 0 .764-.359.784-.558.02-.1.02-.199.02-.299V6.132h-.785V4.977h2.746v2.11c0 .14 0 .26-.02.518-.118 1.433-1.353 1.95-2.726 1.95-1.372 0-2.588-.517-2.726-1.95-.02-.259-.02-.378-.02-.518V3.763c0-.18.02-.339.04-.518.176-1.473 1.353-1.951 2.726-1.951 1.372 0 2.569.458 2.726 1.951.019.18.019.338.019.518v.258h-1.96v-.438c0-.1 0-.199-.02-.298-.04-.18-.177-.577-.785-.577-.373-.04-.686.218-.765.577-.02.12-.039.239-.039.378v3.603c0 .1 0 .2.02.3 0 .198.196.557.765.557zm-16.159.08c.353.04.667-.22.745-.558.02-.1.02-.2.02-.299V1.533h1.961v5.634c0 .14-.02.438-.02.518-.137 1.473-1.274 1.95-2.706 1.95-1.431 0-2.569-.477-2.706-1.95 0-.08-.02-.379-.02-.518V1.533h1.962v5.813c0 .1 0 .2.02.299.078.358.391.597.744.557zm-6.51-1.036c.059.18.059.378.02.577-.06.26-.236.518-.746.518-.47 0-.764-.279-.764-.697V6.81h-2.06v.597c0 1.732 1.354 2.25 2.785 2.25 1.392 0 2.53-.478 2.706-1.772a3.48 3.48 0 0 0 0-1.275c-.333-1.612-3.255-2.11-3.451-3.026-.02-.139-.02-.258 0-.398.059-.259.216-.517.706-.517a.646.646 0 0 1 .706.597v.577h1.902v-.557c0-1.692-1.49-1.971-2.589-1.971-1.372 0-2.47.458-2.686 1.732a2.73 2.73 0 0 0 .02 1.055c.333 1.593 3.059 2.05 3.45 3.066zm-25.179 0c.059.199.059.398.02.597-.059.259-.236.518-.765.518-.49 0-.784-.279-.784-.717V6.79H0v.597c0 1.752 1.353 2.29 2.824 2.29 1.412 0 2.549-.478 2.745-1.792a3.597 3.597 0 0 0 0-1.294c-.333-1.653-3.275-2.13-3.49-3.066-.02-.14-.02-.279 0-.418.058-.26.215-.538.706-.538a.664.664 0 0 1 .725.598v.597h1.941v-.558c0-1.712-1.51-1.99-2.608-1.99-1.372 0-2.51.457-2.706 1.752a2.478 2.478 0 0 0 0 1.074c.314 1.653 3.06 2.11 3.471 3.126zm16.394-5.634l-.961 6.012H19l-.94-6.012h-3.177l-.177 7.864h1.942l.039-7.068h.039l1.314 7.068H20l1.295-7.068h.04l.038 7.068h1.942l-.177-7.864h-3.137zm-11.707 0L6.863 9.397h2.099L10.02 2.25h.039l1.039 7.147h2.079l-1.432-7.864H8.295zm36.474 0l.098 6.171h-.04l-1.784-6.171H40.16v7.784h1.903l-.098-6.39h.039l1.922 6.39h2.764V1.533H44.77zM86.38.239l-2.647 6.37L80.91.24h-2.04l3.884 8.76L81.086 13h2.02L88.4.239h-2.02zM62.457 7.923c-1.49 0-2.706-1.353-2.706-3.046 0-1.692 1.215-3.045 2.706-3.045 1.49 0 2.706 1.353 2.706 3.045 0 1.693-1.216 3.046-2.706 3.046zM62.692 0c-1 0-1.98.358-2.745 1.035V.24h-2.08V13h2.06V8.74a4.356 4.356 0 0 0 2.745 1.035c2.471 0 4.491-2.19 4.491-4.878C67.163 2.21 65.183 0 62.692 0zm10.373 7.923c-1.49 0-2.706-1.353-2.706-3.046 0-1.692 1.216-3.026 2.706-3.026s2.707 1.354 2.707 3.046c0 1.693-1.216 3.026-2.707 3.026zM75.555.24v.756A4.26 4.26 0 0 0 72.83 0c-2.47 0-4.49 2.19-4.49 4.877 0 2.688 2 4.878 4.49 4.878 1 0 1.961-.358 2.726-.995v.836h2.059V.239h-2.06z" mask="url(#b)"/></g></svg>
