<svg width="20" height="20" xmlns="http://www.w3.org/2000/svg"><g fill="#0A1E32" fill-rule="evenodd" opacity=".3"><path d="M20 10c0 2.71429-.00714 3.05714-.05714 4.11429-.05 1.05714-.22143 1.79285-.46429 2.42857-.25714.65714-.6 1.21428-1.15714 1.77143-.55714.55714-1.11429.9-1.77143 1.15714-.63571.25-1.36429.42143-2.42857.46428C13.05714 19.99286 12.71429 20 10 20s-3.05714-.00714-4.11429-.05714c-1.05714-.05-1.79285-.22143-2.42857-.46429-.65714-.25714-1.21428-.6-1.77143-1.15714-.55714-.55714-.9-1.11429-1.15714-1.77143-.25-.63571-.42143-1.36429-.46428-2.42857C.00714 13.05714 0 12.71429 0 10s.00714-3.05714.05714-4.12857c.05-1.05714.22143-1.79286.46429-2.42857.25714-.65.6-1.21429 1.15714-1.75715.55714-.55714 1.11429-.9 1.77143-1.15714.63571-.25 1.36429-.42143 2.42857-.46428C6.94286.00714 7.28571 0 10 0s3.05714.00714 4.11429.05714c1.05714.05 1.79285.22143 2.42857.46429.65714.25714 1.21428.6 1.77143 1.15714.55714.55714.9 1.11429 1.15714 1.77143.25.63571.42143 1.36429.46428 2.42857C19.99286 6.94286 20 7.28571 20 10zm-1.8 0c0-2.67143-.01429-2.98571-.07857-4.03571-.04286-.97858-.20714-1.50715-.34286-1.86429-.17143-.45714-.38571-.8-.74286-1.14286-.34285-.35-.67857-.56428-1.14285-.74285-.35715-.13572-.88572-.3-1.86429-.34286-1.05-.05-1.37143-.06429-4.03571-.06429-2.66429 0-2.97857.02143-4.03572.06429-.97857.04286-1.50714.20714-1.86428.34286-.45715.17142-.8.38571-1.14286.74285C2.6 3.3 2.38571 3.63571 2.20714 4.1c-.13571.35714-.3.88571-.34285 1.86429C1.81429 7.01429 1.8 7.32857 1.8 10s.01429 2.98571.07857 4.03571c.04286.97858.20714 1.50715.34286 1.86429.17143.45714.38571.8.74286 1.14286.34285.35.67857.56428 1.14285.74285.35715.13572.88572.3 1.86429.34286 1.05.05 1.37143.06429 4.03571.06429 2.66429 0 2.97857-.02143 4.03572-.06429.97857-.04286 1.50714-.20714 1.86428-.34286.45715-.17142.8-.38571 1.14286-.74285.35-.34286.56429-.67857.74286-1.14286.13571-.35714.3-.88571.34285-1.86429.05-1.05.06429-1.36428.06429-4.03571z"/><path d="M15.13571 10c0 2.83571-2.3 5.13571-5.13571 5.13571-2.83571 0-5.13571-2.3-5.13571-5.13571 0-2.83571 2.3-5.13571 5.13571-5.13571 2.83571 0 5.13571 2.3 5.13571 5.13571zm-1.80714 0c0-1.83571-1.49286-3.32857-3.32857-3.32857S6.67143 8.16429 6.67143 10 8.16429 13.32857 10 13.32857 13.32857 11.83571 13.32857 10zM16.53571 4.66429c0-.66429-.53571-1.2-1.2-1.2-.66428 0-1.2.53571-1.2 1.2 0 .66428.53572 1.2 1.2 1.2.66429 0 1.2-.54286 1.2-1.2z"/></g></svg>