<svg height="18" width="31" xmlns="http://www.w3.org/2000/svg"><path d="m880.96 897h-3.94c-1.3 0-1.45-.94-3.81-3.19-2-1.97-2.84-2.12-3.33-2.12-.42 0-.72.32-.72 1.07v3.01c0 .88-.51 1.23-2.6 1.23-3.43 0-7.24-2.12-10.15-6.04-4.3-5.82-5.41-10.17-5.41-11.1 0-.5.38-.86.9-.86h3.5c.9 0 1.26.27 1.58 1.23 1.61 4.72 4.48 8.88 5.7 8.88.45 0 .5-.37.5-1.34v-4.8c0-2.33-1.32-2.52-1.32-3.38 0-.34.27-.59.7-.59h5.63c.75 0 .86.27.86 1.18v6.52c0 .74.15 1.02.49 1.02.4 0 .78-.25 1.52-1.08 2.31-2.54 4.22-6.6 4.22-6.6.24-.5.53-.85 1.34-.85h3.51c.7 0 1 .37.86 1.04-.4 1.89-4.45 7.6-4.45 7.6-.38.58-.54.9 0 1.47.37.48 1.55 1.52 2.28 2.5 1.77 1.87 2.92 3.45 2.92 4.34 0 .67-.38.86-.78.86z" fill="#0a1e32" opacity=".3" transform="translate(-851 -879)"/></svg>