<svg height="19" width="25" xmlns="http://www.w3.org/2000/svg"><path d="m917.49 881.25c-.87.38-1.81.64-2.8.75 1-.59 1.78-1.53 2.14-2.65-.94.55-1.98.95-3.1 1.17a4.9 4.9 0 0 0 -8.42 3.28c0 .37.04.74.13 1.09a13.9 13.9 0 0 1 -10.05-5.01 4.78 4.78 0 0 0 1.5 6.4 4.93 4.93 0 0 1 -2.2-.6v.06a4.82 4.82 0 0 0 3.91 4.7 5 5 0 0 1 -2.2.08 4.87 4.87 0 0 0 4.55 3.34 9.87 9.87 0 0 1 -7.21 1.98 13.93 13.93 0 0 0 7.47 2.16c8.96 0 13.86-7.31 13.86-13.65l-.02-.62a9.65 9.65 0 0 0 2.44-2.48z" fill="#0a1e32" opacity=".3" transform="translate(-893 -879)"/></svg>